<svg width="32" height="32" viewBox="0 0 32 32" fill="none" xmlns="http://www.w3.org/2000/svg">
<path d="M22.8353 22.3643L22.364 22.8357C22.1036 23.096 21.6815 23.0961 21.4212 22.8357L16 17.4146L10.5788 22.8357C10.3185 23.096 9.89639 23.096 9.63603 22.8357L9.16468 22.3643C8.90432 22.104 8.90432 21.6818 9.1646 21.4215L14.5858 16.0004L9.16463 10.5792C8.90428 10.3189 8.9043 9.89673 9.16465 9.63637L9.63601 9.16501C9.89637 8.90466 10.3185 8.90464 10.5788 9.16499L16 14.5861L21.4212 9.16498C21.6815 8.90463 22.1036 8.90465 22.364 9.16501L22.8353 9.63636C23.0957 9.89672 23.0957 10.3188 22.8354 10.5792L17.4142 16.0004L22.8354 21.4215C23.0957 21.6819 23.0957 22.104 22.8353 22.3643Z" fill="black"/>
</svg>
